# xmcd
#
# Track frame offsets: 
#        150
#        28204
#        57030
#        99189
#        128423
#        159507
#        200753
#        241539
#        291480
#
# Disc length: 4712 seconds
#
# Revision: 1
# Processed by: cddbd v1.5.2PL0 Copyright (c) Steve Scherf et al.
# Submitted via: ExactAudioCopyFreeDBPlugin 1.0
#
DISCID=72126609
DTITLE=Plastikman - Arkives 1993 - 2010 [CD13 | Replikants I)
DYEAR=2011
DGENRE=Techno
TTITLE0=Ask Yourself (Cliff Martinez Remix)
TTITLE1=Disconnect (Alva Noto Remodel)
TTITLE2=Sheets 'N' Blankets (Crazy Sheet Soul Center Variation)
TTITLE3=Are Friends Electrik? (Convertible Remix)
TTITLE4=I Don't Know (Carter Tutti Remix)
TTITLE5=Pakard (Flood's See You on the Other Side Remix)
TTITLE6=Akoustik (F.K. Remix)
TTITLE7=Mind in Rewind (Carl Craig Prog 47 Remix)
TTITLE8=I Don't Know (Kazuya Nagaya Remix)
EXTD=
EXTT0=
EXTT1=
EXTT2=
EXTT3=
EXTT4=
EXTT5=
EXTT6=
EXTT7=
EXTT8=
PLAYORDER=
